<svg xmlns="http://www.w3.org/2000/svg" viewBox="0 0 85 85"><path d="M40.5 20.7A18.5 18.5 0 0 0 22 39v25.7a18.5 18.5 0 0 0 37 0V39c0-10.1-8.4-18.3-18.5-18.3zm0 59.8c-8.7 0-15.5-7.1-15.5-15.8V39c0-8.7 6.8-15.8 15.5-15.8S56 30.3 56 39v25.7c0 8.7-6.8 15.8-15.5 15.8zm2.5-40c0 .8-.7 1.5-1.5 1.5h-1.1c-.8 0-1.5-.7-1.5-1.5v-5.1c0-.8.7-1.5 1.5-1.5h1.1c.8 0 1.5.7 1.5 1.5v5.1zM16.2 21.3a1 1 0 0 0-.5.9c0 .6.4 1.2 1.1 1.2l7 .4c.6 0 1.2-.4 1.2-1.1 0-.6-.4-1.2-1.1-1.2l-7-.4-.7.2zM40.5 9.2l-.5.4-3.9 5.9c-.4.5-.2 1.3.3 1.6.5.4 1.3.2 1.6-.3l3.9-5.9c.4-.5.2-1.3-.3-1.6-.4-.3-.8-.3-1.1-.1zM25 8.4c-.6.3-.8 1-.5 1.6l3.1 6.3c.3.6 1 .8 1.6.5.6-.3.8-1 .5-1.6l-3.1-6.3c-.3-.6-1-.8-1.6-.5z"></path></svg>